<svg width="1363" height="297" viewBox="0 0 1363 297" fill="none" xmlns="http://www.w3.org/2000/svg">
<path d="M0 15C0 6.71573 6.71573 0 15 0H37V297H15C6.71573 297 0 290.284 0 282V15Z" fill="#1E2A78"/>
<path d="M37 0H1066V297H37V0Z" fill="#F0F0F0"/>
<path d="M97.6934 49.4062H102.158L108.732 68.1973L115.307 49.4062H119.771L110.525 75H106.939L97.6934 49.4062ZM95.2852 49.4062H99.7324L100.541 67.7227V75H95.2852V49.4062ZM117.732 49.4062H122.197V75H116.924V67.7227L117.732 49.4062ZM125.695 65.6836V65.3145C125.695 63.9199 125.895 62.6367 126.293 61.4648C126.691 60.2812 127.271 59.2559 128.033 58.3887C128.795 57.5215 129.732 56.8477 130.846 56.3672C131.959 55.875 133.236 55.6289 134.678 55.6289C136.119 55.6289 137.402 55.875 138.527 56.3672C139.652 56.8477 140.596 57.5215 141.357 58.3887C142.131 59.2559 142.717 60.2812 143.115 61.4648C143.514 62.6367 143.713 63.9199 143.713 65.3145V65.6836C143.713 67.0664 143.514 68.3496 143.115 69.5332C142.717 70.7051 142.131 71.7305 141.357 72.6094C140.596 73.4766 139.658 74.1504 138.545 74.6309C137.432 75.1113 136.154 75.3516 134.713 75.3516C133.271 75.3516 131.988 75.1113 130.863 74.6309C129.75 74.1504 128.807 73.4766 128.033 72.6094C127.271 71.7305 126.691 70.7051 126.293 69.5332C125.895 68.3496 125.695 67.0664 125.695 65.6836ZM130.758 65.3145V65.6836C130.758 66.4805 130.828 67.2246 130.969 67.916C131.109 68.6074 131.332 69.2168 131.637 69.7441C131.953 70.2598 132.363 70.6641 132.867 70.957C133.371 71.25 133.986 71.3965 134.713 71.3965C135.416 71.3965 136.02 71.25 136.523 70.957C137.027 70.6641 137.432 70.2598 137.736 69.7441C138.041 69.2168 138.264 68.6074 138.404 67.916C138.557 67.2246 138.633 66.4805 138.633 65.6836V65.3145C138.633 64.541 138.557 63.8145 138.404 63.1348C138.264 62.4434 138.035 61.834 137.719 61.3066C137.414 60.7676 137.01 60.3457 136.506 60.041C136.002 59.7363 135.393 59.584 134.678 59.584C133.963 59.584 133.354 59.7363 132.85 60.041C132.357 60.3457 131.953 60.7676 131.637 61.3066C131.332 61.834 131.109 62.4434 130.969 63.1348C130.828 63.8145 130.758 64.541 130.758 65.3145ZM157.107 69.7441C157.107 69.3809 157.002 69.0527 156.791 68.7598C156.58 68.4668 156.188 68.1973 155.613 67.9512C155.051 67.6934 154.236 67.459 153.17 67.248C152.209 67.0371 151.312 66.7734 150.48 66.457C149.66 66.1289 148.945 65.7363 148.336 65.2793C147.738 64.8223 147.27 64.2832 146.93 63.6621C146.59 63.0293 146.42 62.3086 146.42 61.5C146.42 60.7031 146.59 59.9531 146.93 59.25C147.281 58.5469 147.779 57.9258 148.424 57.3867C149.08 56.8359 149.877 56.4082 150.814 56.1035C151.764 55.7871 152.83 55.6289 154.014 55.6289C155.666 55.6289 157.084 55.8926 158.268 56.4199C159.463 56.9473 160.377 57.6738 161.01 58.5996C161.654 59.5137 161.977 60.5566 161.977 61.7285H156.914C156.914 61.2363 156.809 60.7969 156.598 60.4102C156.398 60.0117 156.082 59.7012 155.648 59.4785C155.227 59.2441 154.676 59.127 153.996 59.127C153.434 59.127 152.947 59.2266 152.537 59.4258C152.127 59.6133 151.811 59.8711 151.588 60.1992C151.377 60.5156 151.271 60.8672 151.271 61.2539C151.271 61.5469 151.33 61.8105 151.447 62.0449C151.576 62.2676 151.781 62.4727 152.062 62.6602C152.344 62.8477 152.707 63.0234 153.152 63.1875C153.609 63.3398 154.172 63.4805 154.84 63.6094C156.211 63.8906 157.436 64.2598 158.514 64.7168C159.592 65.1621 160.447 65.7715 161.08 66.5449C161.713 67.3066 162.029 68.3086 162.029 69.5508C162.029 70.3945 161.842 71.168 161.467 71.8711C161.092 72.5742 160.553 73.1895 159.85 73.7168C159.146 74.2324 158.303 74.6367 157.318 74.9297C156.346 75.2109 155.25 75.3516 154.031 75.3516C152.262 75.3516 150.762 75.0352 149.531 74.4023C148.312 73.7695 147.387 72.9668 146.754 71.9941C146.133 71.0098 145.822 70.002 145.822 68.9707H150.621C150.645 69.6621 150.82 70.2188 151.148 70.6406C151.488 71.0625 151.916 71.3672 152.432 71.5547C152.959 71.7422 153.527 71.8359 154.137 71.8359C154.793 71.8359 155.338 71.748 155.771 71.5723C156.205 71.3848 156.533 71.1387 156.756 70.834C156.99 70.5176 157.107 70.1543 157.107 69.7441ZM174.633 55.9805V59.5664H163.559V55.9805H174.633ZM166.301 51.2871H171.363V69.2695C171.363 69.8203 171.434 70.2422 171.574 70.5352C171.727 70.8281 171.949 71.0332 172.242 71.1504C172.535 71.2559 172.904 71.3086 173.35 71.3086C173.666 71.3086 173.947 71.2969 174.193 71.2734C174.451 71.2383 174.668 71.2031 174.844 71.168L174.861 74.8945C174.428 75.0352 173.959 75.1465 173.455 75.2285C172.951 75.3105 172.395 75.3516 171.785 75.3516C170.672 75.3516 169.699 75.1699 168.867 74.8066C168.047 74.4316 167.414 73.834 166.969 73.0137C166.523 72.1934 166.301 71.1152 166.301 69.7793V51.2871ZM187.781 70.7109V62.2383C187.781 61.6289 187.682 61.1074 187.482 60.6738C187.283 60.2285 186.973 59.8828 186.551 59.6367C186.141 59.3906 185.607 59.2676 184.951 59.2676C184.389 59.2676 183.902 59.3672 183.492 59.5664C183.082 59.7539 182.766 60.0293 182.543 60.3926C182.32 60.7441 182.209 61.1602 182.209 61.6406H177.146C177.146 60.832 177.334 60.0645 177.709 59.3379C178.084 58.6113 178.629 57.9727 179.344 57.4219C180.059 56.8594 180.908 56.4199 181.893 56.1035C182.889 55.7871 184.002 55.6289 185.232 55.6289C186.709 55.6289 188.021 55.875 189.17 56.3672C190.318 56.8594 191.221 57.5977 191.877 58.582C192.545 59.5664 192.879 60.7969 192.879 62.2734V70.4121C192.879 71.4551 192.943 72.3105 193.072 72.9785C193.201 73.6348 193.389 74.209 193.635 74.7012V75H188.52C188.273 74.4844 188.086 73.8398 187.957 73.0664C187.84 72.2812 187.781 71.4961 187.781 70.7109ZM188.449 63.416L188.484 66.2812H185.654C184.986 66.2812 184.406 66.3574 183.914 66.5098C183.422 66.6621 183.018 66.8789 182.701 67.1602C182.385 67.4297 182.15 67.7461 181.998 68.1094C181.857 68.4727 181.787 68.8711 181.787 69.3047C181.787 69.7383 181.887 70.1309 182.086 70.4824C182.285 70.8223 182.572 71.0918 182.947 71.291C183.322 71.4785 183.762 71.5723 184.266 71.5723C185.027 71.5723 185.689 71.4199 186.252 71.1152C186.814 70.8105 187.248 70.4355 187.553 69.9902C187.869 69.5449 188.033 69.123 188.045 68.7246L189.381 70.8691C189.193 71.3496 188.936 71.8477 188.607 72.3633C188.291 72.8789 187.887 73.3652 187.395 73.8223C186.902 74.2676 186.311 74.6367 185.619 74.9297C184.928 75.2109 184.107 75.3516 183.158 75.3516C181.951 75.3516 180.855 75.1113 179.871 74.6309C178.898 74.1387 178.125 73.4648 177.551 72.6094C176.988 71.7422 176.707 70.7578 176.707 69.6562C176.707 68.6602 176.895 67.7754 177.27 67.002C177.645 66.2285 178.195 65.5781 178.922 65.0508C179.66 64.5117 180.58 64.1074 181.682 63.8379C182.783 63.5566 184.061 63.416 185.514 63.416H188.449ZM203.232 75H198.135V54.293C198.135 52.8516 198.416 51.6387 198.979 50.6543C199.553 49.6582 200.355 48.9082 201.387 48.4043C202.43 47.8887 203.666 47.6309 205.096 47.6309C205.564 47.6309 206.016 47.666 206.449 47.7363C206.883 47.7949 207.305 47.8711 207.715 47.9648L207.662 51.7793C207.439 51.7207 207.205 51.6797 206.959 51.6562C206.713 51.6328 206.426 51.6211 206.098 51.6211C205.488 51.6211 204.967 51.7266 204.533 51.9375C204.111 52.1367 203.789 52.4355 203.566 52.834C203.344 53.2324 203.232 53.7188 203.232 54.293V75ZM207.029 55.9805V59.5664H195.305V55.9805H207.029ZM219.949 70.7109V62.2383C219.949 61.6289 219.85 61.1074 219.65 60.6738C219.451 60.2285 219.141 59.8828 218.719 59.6367C218.309 59.3906 217.775 59.2676 217.119 59.2676C216.557 59.2676 216.07 59.3672 215.66 59.5664C215.25 59.7539 214.934 60.0293 214.711 60.3926C214.488 60.7441 214.377 61.1602 214.377 61.6406H209.314C209.314 60.832 209.502 60.0645 209.877 59.3379C210.252 58.6113 210.797 57.9727 211.512 57.4219C212.227 56.8594 213.076 56.4199 214.061 56.1035C215.057 55.7871 216.17 55.6289 217.4 55.6289C218.877 55.6289 220.189 55.875 221.338 56.3672C222.486 56.8594 223.389 57.5977 224.045 58.582C224.713 59.5664 225.047 60.7969 225.047 62.2734V70.4121C225.047 71.4551 225.111 72.3105 225.24 72.9785C225.369 73.6348 225.557 74.209 225.803 74.7012V75H220.688C220.441 74.4844 220.254 73.8398 220.125 73.0664C220.008 72.2812 219.949 71.4961 219.949 70.7109ZM220.617 63.416L220.652 66.2812H217.822C217.154 66.2812 216.574 66.3574 216.082 66.5098C215.59 66.6621 215.186 66.8789 214.869 67.1602C214.553 67.4297 214.318 67.7461 214.166 68.1094C214.025 68.4727 213.955 68.8711 213.955 69.3047C213.955 69.7383 214.055 70.1309 214.254 70.4824C214.453 70.8223 214.74 71.0918 215.115 71.291C215.49 71.4785 215.93 71.5723 216.434 71.5723C217.195 71.5723 217.857 71.4199 218.42 71.1152C218.982 70.8105 219.416 70.4355 219.721 69.9902C220.037 69.5449 220.201 69.123 220.213 68.7246L221.549 70.8691C221.361 71.3496 221.104 71.8477 220.775 72.3633C220.459 72.8789 220.055 73.3652 219.562 73.8223C219.07 74.2676 218.479 74.6367 217.787 74.9297C217.096 75.2109 216.275 75.3516 215.326 75.3516C214.119 75.3516 213.023 75.1113 212.039 74.6309C211.066 74.1387 210.293 73.4648 209.719 72.6094C209.156 71.7422 208.875 70.7578 208.875 69.6562C208.875 68.6602 209.062 67.7754 209.438 67.002C209.812 66.2285 210.363 65.5781 211.09 65.0508C211.828 64.5117 212.748 64.1074 213.85 63.8379C214.951 63.5566 216.229 63.416 217.682 63.416H220.617ZM248.637 53.7832L241.676 75H236.068L245.578 49.4062H249.146L248.637 53.7832ZM254.42 75L247.441 53.7832L246.879 49.4062H250.482L260.045 75H254.42ZM254.104 65.4727V69.6035H240.586V65.4727H254.104ZM267.445 48V75H262.365V48H267.445ZM290.93 63.7676H284.355L284.32 60.1465H289.84C290.812 60.1465 291.609 60.0234 292.23 59.7773C292.852 59.5195 293.314 59.1504 293.619 58.6699C293.936 58.1777 294.094 57.5801 294.094 56.877C294.094 56.0801 293.941 55.4355 293.637 54.9434C293.344 54.4512 292.881 54.0938 292.248 53.8711C291.627 53.6484 290.824 53.5371 289.84 53.5371H286.184V75H280.91V49.4062H289.84C291.328 49.4062 292.658 49.5469 293.83 49.8281C295.014 50.1094 296.016 50.5371 296.836 51.1113C297.656 51.6855 298.283 52.4121 298.717 53.291C299.15 54.1582 299.367 55.1895 299.367 56.3848C299.367 57.4395 299.127 58.4121 298.646 59.3027C298.178 60.1934 297.434 60.9199 296.414 61.4824C295.406 62.0449 294.088 62.3555 292.459 62.4141L290.93 63.7676ZM290.701 75H282.914L284.971 70.8867H290.701C291.627 70.8867 292.383 70.7402 292.969 70.4473C293.555 70.1426 293.988 69.7324 294.27 69.2168C294.551 68.7012 294.691 68.1094 294.691 67.4414C294.691 66.6914 294.562 66.041 294.305 65.4902C294.059 64.9395 293.66 64.5176 293.109 64.2246C292.559 63.9199 291.832 63.7676 290.93 63.7676H285.85L285.885 60.1465H292.213L293.426 61.5703C294.984 61.5469 296.238 61.8223 297.188 62.3965C298.148 62.959 298.846 63.6914 299.279 64.5938C299.725 65.4961 299.947 66.4629 299.947 67.4941C299.947 69.1348 299.59 70.5176 298.875 71.6426C298.16 72.7559 297.111 73.5938 295.729 74.1562C294.357 74.7188 292.682 75 290.701 75ZM308.93 55.9805V75H303.85V55.9805H308.93ZM303.533 51.0234C303.533 50.2852 303.791 49.6758 304.307 49.1953C304.822 48.7148 305.514 48.4746 306.381 48.4746C307.236 48.4746 307.922 48.7148 308.438 49.1953C308.965 49.6758 309.229 50.2852 309.229 51.0234C309.229 51.7617 308.965 52.3711 308.438 52.8516C307.922 53.332 307.236 53.5723 306.381 53.5723C305.514 53.5723 304.822 53.332 304.307 52.8516C303.791 52.3711 303.533 51.7617 303.533 51.0234ZM318.457 48V75H313.377V48H318.457ZM332.906 70.7109V62.2383C332.906 61.6289 332.807 61.1074 332.607 60.6738C332.408 60.2285 332.098 59.8828 331.676 59.6367C331.266 59.3906 330.732 59.2676 330.076 59.2676C329.514 59.2676 329.027 59.3672 328.617 59.5664C328.207 59.7539 327.891 60.0293 327.668 60.3926C327.445 60.7441 327.334 61.1602 327.334 61.6406H322.271C322.271 60.832 322.459 60.0645 322.834 59.3379C323.209 58.6113 323.754 57.9727 324.469 57.4219C325.184 56.8594 326.033 56.4199 327.018 56.1035C328.014 55.7871 329.127 55.6289 330.357 55.6289C331.834 55.6289 333.146 55.875 334.295 56.3672C335.443 56.8594 336.346 57.5977 337.002 58.582C337.67 59.5664 338.004 60.7969 338.004 62.2734V70.4121C338.004 71.4551 338.068 72.3105 338.197 72.9785C338.326 73.6348 338.514 74.209 338.76 74.7012V75H333.645C333.398 74.4844 333.211 73.8398 333.082 73.0664C332.965 72.2812 332.906 71.4961 332.906 70.7109ZM333.574 63.416L333.609 66.2812H330.779C330.111 66.2812 329.531 66.3574 329.039 66.5098C328.547 66.6621 328.143 66.8789 327.826 67.1602C327.51 67.4297 327.275 67.7461 327.123 68.1094C326.982 68.4727 326.912 68.8711 326.912 69.3047C326.912 69.7383 327.012 70.1309 327.211 70.4824C327.41 70.8223 327.697 71.0918 328.072 71.291C328.447 71.4785 328.887 71.5723 329.391 71.5723C330.152 71.5723 330.814 71.4199 331.377 71.1152C331.939 70.8105 332.373 70.4355 332.678 69.9902C332.994 69.5449 333.158 69.123 333.17 68.7246L334.506 70.8691C334.318 71.3496 334.061 71.8477 333.732 72.3633C333.416 72.8789 333.012 73.3652 332.52 73.8223C332.027 74.2676 331.436 74.6367 330.744 74.9297C330.053 75.2109 329.232 75.3516 328.283 75.3516C327.076 75.3516 325.98 75.1113 324.996 74.6309C324.023 74.1387 323.25 73.4648 322.676 72.6094C322.113 71.7422 321.832 70.7578 321.832 69.6562C321.832 68.6602 322.02 67.7754 322.395 67.002C322.77 66.2285 323.32 65.5781 324.047 65.0508C324.785 64.5117 325.705 64.1074 326.807 63.8379C327.908 63.5566 329.186 63.416 330.639 63.416H333.574ZM346.863 60.041V75H341.801V55.9805H346.547L346.863 60.041ZM346.125 64.8223H344.754C344.754 63.416 344.936 62.1504 345.299 61.0254C345.662 59.8887 346.172 58.9219 346.828 58.125C347.484 57.3164 348.264 56.7012 349.166 56.2793C350.08 55.8457 351.1 55.6289 352.225 55.6289C353.115 55.6289 353.93 55.7578 354.668 56.0156C355.406 56.2734 356.039 56.6836 356.566 57.2461C357.105 57.8086 357.516 58.5527 357.797 59.4785C358.09 60.4043 358.236 61.5352 358.236 62.8711V75H353.139V62.8535C353.139 62.0098 353.021 61.3535 352.787 60.8848C352.553 60.416 352.207 60.0879 351.75 59.9004C351.305 59.7012 350.754 59.6016 350.098 59.6016C349.418 59.6016 348.826 59.7363 348.322 60.0059C347.83 60.2754 347.42 60.6504 347.092 61.1309C346.775 61.5996 346.535 62.1504 346.371 62.7832C346.207 63.416 346.125 64.0957 346.125 64.8223ZM367.43 55.9805V75H362.35V55.9805H367.43ZM362.033 51.0234C362.033 50.2852 362.291 49.6758 362.807 49.1953C363.322 48.7148 364.014 48.4746 364.881 48.4746C365.736 48.4746 366.422 48.7148 366.938 49.1953C367.465 49.6758 367.729 50.2852 367.729 51.0234C367.729 51.7617 367.465 52.3711 366.938 52.8516C366.422 53.332 365.736 53.5723 364.881 53.5723C364.014 53.5723 363.322 53.332 362.807 52.8516C362.291 52.3711 362.033 51.7617 362.033 51.0234Z" fill="#888888"/>
<path d="M108.969 140H100.137L100.191 132.617H108.969C110.792 132.617 112.332 132.18 113.59 131.305C114.866 130.43 115.832 129.126 116.488 127.395C117.163 125.645 117.5 123.493 117.5 120.941V119.219C117.5 117.305 117.309 115.628 116.926 114.188C116.561 112.729 116.014 111.517 115.285 110.551C114.556 109.566 113.645 108.828 112.551 108.336C111.475 107.844 110.236 107.598 108.832 107.598H99.9727V100.188H108.832C111.53 100.188 114 100.652 116.242 101.582C118.503 102.493 120.453 103.806 122.094 105.52C123.753 107.215 125.029 109.229 125.922 111.562C126.833 113.878 127.289 116.448 127.289 119.273V120.941C127.289 123.749 126.833 126.319 125.922 128.652C125.029 130.986 123.762 133 122.121 134.695C120.48 136.391 118.539 137.703 116.297 138.633C114.073 139.544 111.63 140 108.969 140ZM105.633 100.188V140H96.0352V100.188H105.633ZM146.184 140.547C143.777 140.547 141.626 140.173 139.73 139.426C137.835 138.66 136.23 137.612 134.918 136.281C133.624 134.951 132.63 133.419 131.938 131.688C131.263 129.956 130.926 128.124 130.926 126.191V125.152C130.926 122.983 131.227 120.978 131.828 119.137C132.43 117.277 133.323 115.655 134.508 114.27C135.693 112.884 137.178 111.809 138.965 111.043C140.751 110.259 142.829 109.867 145.199 109.867C147.296 109.867 149.173 110.204 150.832 110.879C152.491 111.553 153.895 112.52 155.043 113.777C156.21 115.035 157.094 116.557 157.695 118.344C158.315 120.13 158.625 122.135 158.625 124.359V128.105H134.453V122.336H149.629V121.625C149.647 120.641 149.474 119.802 149.109 119.109C148.763 118.417 148.253 117.888 147.578 117.523C146.904 117.159 146.083 116.977 145.117 116.977C144.115 116.977 143.285 117.195 142.629 117.633C141.991 118.07 141.49 118.672 141.125 119.438C140.779 120.185 140.533 121.051 140.387 122.035C140.241 123.02 140.168 124.059 140.168 125.152V126.191C140.168 127.285 140.314 128.279 140.605 129.172C140.915 130.065 141.353 130.831 141.918 131.469C142.501 132.089 143.194 132.572 143.996 132.918C144.816 133.264 145.746 133.438 146.785 133.438C148.043 133.438 149.283 133.201 150.504 132.727C151.725 132.253 152.773 131.469 153.648 130.375L157.832 135.352C157.23 136.208 156.374 137.038 155.262 137.84C154.168 138.642 152.855 139.298 151.324 139.809C149.793 140.301 148.079 140.547 146.184 140.547ZM172.652 133.684L178.477 110.414H188.184L178.504 140H172.762L172.652 133.684ZM169.207 110.414L174.949 133.684L174.895 140H169.125L159.473 110.414H169.207ZM200.953 100.188V140H191.355V100.188H200.953ZM216.43 116.758V124.141H198.219V116.758H216.43ZM217.988 100.188V107.598H198.219V100.188H217.988ZM231.277 98V140H222.035V98H231.277ZM235.816 125.508V124.934C235.816 122.764 236.126 120.768 236.746 118.945C237.366 117.104 238.277 115.509 239.48 114.16C240.684 112.811 242.169 111.763 243.938 111.016C245.706 110.25 247.747 109.867 250.062 109.867C252.396 109.867 254.447 110.25 256.215 111.016C258.001 111.763 259.496 112.811 260.699 114.16C261.902 115.509 262.814 117.104 263.434 118.945C264.053 120.768 264.363 122.764 264.363 124.934V125.508C264.363 127.659 264.053 129.655 263.434 131.496C262.814 133.319 261.902 134.914 260.699 136.281C259.496 137.63 258.01 138.678 256.242 139.426C254.474 140.173 252.432 140.547 250.117 140.547C247.802 140.547 245.751 140.173 243.965 139.426C242.178 138.678 240.684 137.63 239.48 136.281C238.277 134.914 237.366 133.319 236.746 131.496C236.126 129.655 235.816 127.659 235.816 125.508ZM245.031 124.934V125.508C245.031 126.62 245.113 127.659 245.277 128.625C245.441 129.591 245.715 130.439 246.098 131.168C246.48 131.879 247 132.435 247.656 132.836C248.312 133.237 249.133 133.438 250.117 133.438C251.083 133.438 251.885 133.237 252.523 132.836C253.18 132.435 253.699 131.879 254.082 131.168C254.465 130.439 254.738 129.591 254.902 128.625C255.066 127.659 255.148 126.62 255.148 125.508V124.934C255.148 123.858 255.066 122.846 254.902 121.898C254.738 120.932 254.465 120.085 254.082 119.355C253.699 118.608 253.18 118.025 252.523 117.605C251.867 117.186 251.047 116.977 250.062 116.977C249.096 116.977 248.285 117.186 247.629 117.605C246.991 118.025 246.48 118.608 246.098 119.355C245.715 120.085 245.441 120.932 245.277 121.898C245.113 122.846 245.031 123.858 245.031 124.934ZM277.461 131.195L282.93 110.414H288.699L286.648 120.832L281.234 140H276.613L277.461 131.195ZM275.301 110.414L278.691 131.031L279.074 140H273.469L266.469 110.414H275.301ZM293.566 130.594L296.984 110.414H305.816L298.871 140H293.266L293.566 130.594ZM289.355 110.414L294.879 131.141L295.727 140H291.051L285.746 120.887L283.777 110.414H289.355Z" fill="black"/>
<rect x="93" y="178" width="917" height="77" rx="10" fill="#D3D3D3"/>
<rect x="111" y="196" width="129" height="41" rx="3" fill="#424242"/>
<rect x="111" y="196" width="129" height="41" rx="3" stroke="#424242" stroke-width="4"/>
<path d="M142.629 220.627V223H136.16V220.627H142.629ZM137.259 210.203V223H134.174V210.203H137.259ZM148.729 220.609V216.689C148.729 216.42 148.69 216.188 148.614 215.995C148.538 215.802 148.418 215.652 148.254 215.547C148.09 215.436 147.87 215.38 147.595 215.38C147.372 215.38 147.182 215.418 147.023 215.494C146.865 215.57 146.745 215.685 146.663 215.837C146.581 215.989 146.54 216.183 146.54 216.417H143.578C143.578 215.978 143.675 215.57 143.868 215.195C144.067 214.814 144.349 214.483 144.712 214.202C145.081 213.921 145.521 213.704 146.03 213.552C146.546 213.394 147.12 213.314 147.753 213.314C148.509 213.314 149.183 213.44 149.774 213.692C150.372 213.944 150.844 214.322 151.189 214.826C151.535 215.324 151.708 215.951 151.708 216.707V220.601C151.708 221.222 151.743 221.693 151.813 222.016C151.884 222.332 151.983 222.61 152.112 222.851V223H149.142C149.001 222.707 148.896 222.35 148.825 221.928C148.761 221.5 148.729 221.061 148.729 220.609ZM149.089 217.19L149.106 218.772H147.797C147.521 218.772 147.287 218.811 147.094 218.887C146.906 218.963 146.754 219.068 146.637 219.203C146.525 219.332 146.443 219.479 146.391 219.643C146.344 219.807 146.32 219.979 146.32 220.161C146.32 220.337 146.361 220.495 146.443 220.636C146.531 220.771 146.648 220.876 146.795 220.952C146.941 221.028 147.105 221.066 147.287 221.066C147.615 221.066 147.894 221.005 148.122 220.882C148.356 220.753 148.535 220.598 148.658 220.416C148.781 220.234 148.843 220.064 148.843 219.906L149.493 221.119C149.376 221.354 149.241 221.591 149.089 221.831C148.942 222.071 148.758 222.294 148.535 222.499C148.318 222.698 148.052 222.862 147.735 222.991C147.419 223.114 147.035 223.176 146.584 223.176C145.998 223.176 145.459 223.056 144.967 222.815C144.48 222.575 144.091 222.241 143.798 221.813C143.505 221.38 143.358 220.882 143.358 220.319C143.358 219.827 143.446 219.388 143.622 219.001C143.804 218.614 144.076 218.286 144.439 218.017C144.803 217.747 145.266 217.542 145.828 217.401C146.391 217.261 147.053 217.19 147.814 217.19H149.089ZM156.34 215.846V223H153.378V213.49H156.146L156.34 215.846ZM159.152 213.42L159.1 216.171C158.982 216.159 158.824 216.145 158.625 216.127C158.426 216.109 158.259 216.101 158.124 216.101C157.778 216.101 157.479 216.142 157.228 216.224C156.981 216.3 156.776 216.417 156.612 216.575C156.454 216.728 156.337 216.921 156.261 217.155C156.19 217.39 156.158 217.662 156.164 217.973L155.628 217.621C155.628 216.982 155.689 216.402 155.812 215.881C155.941 215.354 156.123 214.899 156.357 214.519C156.592 214.132 156.876 213.836 157.21 213.631C157.544 213.42 157.919 213.314 158.335 213.314C158.481 213.314 158.625 213.323 158.766 213.341C158.912 213.358 159.041 213.385 159.152 213.42ZM164.848 220.609V216.689C164.848 216.42 164.81 216.188 164.733 215.995C164.657 215.802 164.537 215.652 164.373 215.547C164.209 215.436 163.989 215.38 163.714 215.38C163.491 215.38 163.301 215.418 163.143 215.494C162.984 215.57 162.864 215.685 162.782 215.837C162.7 215.989 162.659 216.183 162.659 216.417H159.697C159.697 215.978 159.794 215.57 159.987 215.195C160.187 214.814 160.468 214.483 160.831 214.202C161.2 213.921 161.64 213.704 162.149 213.552C162.665 213.394 163.239 213.314 163.872 213.314C164.628 213.314 165.302 213.44 165.894 213.692C166.491 213.944 166.963 214.322 167.309 214.826C167.654 215.324 167.827 215.951 167.827 216.707V220.601C167.827 221.222 167.862 221.693 167.933 222.016C168.003 222.332 168.103 222.61 168.231 222.851V223H165.261C165.12 222.707 165.015 222.35 164.944 221.928C164.88 221.5 164.848 221.061 164.848 220.609ZM165.208 217.19L165.226 218.772H163.916C163.641 218.772 163.406 218.811 163.213 218.887C163.025 218.963 162.873 219.068 162.756 219.203C162.645 219.332 162.562 219.479 162.51 219.643C162.463 219.807 162.439 219.979 162.439 220.161C162.439 220.337 162.48 220.495 162.562 220.636C162.65 220.771 162.768 220.876 162.914 220.952C163.061 221.028 163.225 221.066 163.406 221.066C163.734 221.066 164.013 221.005 164.241 220.882C164.476 220.753 164.654 220.598 164.777 220.416C164.9 220.234 164.962 220.064 164.962 219.906L165.612 221.119C165.495 221.354 165.36 221.591 165.208 221.831C165.062 222.071 164.877 222.294 164.654 222.499C164.438 222.698 164.171 222.862 163.854 222.991C163.538 223.114 163.154 223.176 162.703 223.176C162.117 223.176 161.578 223.056 161.086 222.815C160.6 222.575 160.21 222.241 159.917 221.813C159.624 221.38 159.478 220.882 159.478 220.319C159.478 219.827 159.565 219.388 159.741 219.001C159.923 218.614 160.195 218.286 160.559 218.017C160.922 217.747 161.385 217.542 161.947 217.401C162.51 217.261 163.172 217.19 163.934 217.19H165.208ZM172.758 220.97L174.63 213.49H177.75L174.639 223H172.793L172.758 220.97ZM171.65 213.49L173.496 220.97L173.479 223H171.624L168.521 213.49H171.65ZM183.111 223.176C182.338 223.176 181.646 223.056 181.037 222.815C180.428 222.569 179.912 222.232 179.49 221.805C179.074 221.377 178.755 220.885 178.532 220.328C178.315 219.771 178.207 219.183 178.207 218.562V218.228C178.207 217.53 178.304 216.886 178.497 216.294C178.69 215.696 178.978 215.175 179.358 214.729C179.739 214.284 180.217 213.938 180.791 213.692C181.365 213.44 182.033 213.314 182.795 213.314C183.469 213.314 184.072 213.423 184.605 213.64C185.139 213.856 185.59 214.167 185.959 214.571C186.334 214.976 186.618 215.465 186.812 216.039C187.011 216.613 187.11 217.258 187.11 217.973V219.177H179.341V217.322H184.219V217.094C184.225 216.777 184.169 216.508 184.052 216.285C183.94 216.062 183.776 215.893 183.56 215.775C183.343 215.658 183.079 215.6 182.769 215.6C182.446 215.6 182.18 215.67 181.969 215.811C181.764 215.951 181.603 216.145 181.485 216.391C181.374 216.631 181.295 216.909 181.248 217.226C181.201 217.542 181.178 217.876 181.178 218.228V218.562C181.178 218.913 181.225 219.232 181.318 219.52C181.418 219.807 181.559 220.053 181.74 220.258C181.928 220.457 182.15 220.612 182.408 220.724C182.672 220.835 182.971 220.891 183.305 220.891C183.709 220.891 184.107 220.814 184.5 220.662C184.893 220.51 185.229 220.258 185.511 219.906L186.855 221.506C186.662 221.781 186.387 222.048 186.029 222.306C185.678 222.563 185.256 222.774 184.764 222.938C184.271 223.097 183.721 223.176 183.111 223.176ZM191.443 209.5V223H188.473V209.5H191.443ZM204.267 210.203V223H201.305V213.543L198.387 214.396V212.146L203.994 210.203H204.267ZM217.081 220.715V223H208.151V221.066L212.265 216.742C212.628 216.326 212.921 215.954 213.144 215.626C213.366 215.292 213.527 214.99 213.627 214.721C213.732 214.451 213.785 214.208 213.785 213.991C213.785 213.622 213.729 213.314 213.618 213.068C213.513 212.816 213.354 212.626 213.144 212.497C212.938 212.368 212.684 212.304 212.379 212.304C212.074 212.304 211.808 212.392 211.579 212.567C211.351 212.743 211.172 212.983 211.043 213.288C210.92 213.593 210.858 213.936 210.858 214.316H207.888C207.888 213.531 208.078 212.813 208.459 212.163C208.846 211.513 209.382 210.994 210.067 210.607C210.753 210.215 211.547 210.019 212.449 210.019C213.393 210.019 214.184 210.165 214.822 210.458C215.461 210.751 215.941 211.176 216.264 211.732C216.592 212.283 216.756 212.948 216.756 213.728C216.756 214.173 216.686 214.601 216.545 215.011C216.404 215.421 216.202 215.828 215.938 216.232C215.675 216.631 215.353 217.041 214.972 217.463C214.597 217.885 214.169 218.333 213.688 218.808L212.036 220.715H217.081Z" fill="white"/>
<rect x="260" y="196" width="111" height="41" rx="3" fill="#424242"/>
<rect x="260" y="196" width="111" height="41" rx="3" stroke="#424242" stroke-width="4"/>
<path d="M283.367 210.203H288.403C289.388 210.203 290.243 210.35 290.97 210.643C291.696 210.936 292.256 211.369 292.648 211.943C293.047 212.518 293.246 213.227 293.246 214.07C293.246 214.803 293.132 215.415 292.903 215.907C292.675 216.399 292.355 216.807 291.945 217.129C291.541 217.445 291.069 217.706 290.53 217.911L289.52 218.482H285.292L285.274 216.101H288.403C288.796 216.101 289.121 216.03 289.379 215.89C289.637 215.749 289.83 215.55 289.959 215.292C290.094 215.028 290.161 214.715 290.161 214.352C290.161 213.982 290.094 213.666 289.959 213.402C289.824 213.139 289.625 212.937 289.361 212.796C289.104 212.655 288.784 212.585 288.403 212.585H286.452V223H283.367V210.203ZM290.372 223L287.542 217.34L290.812 217.322L293.677 222.868V223H290.372ZM299.574 223.176C298.801 223.176 298.109 223.056 297.5 222.815C296.891 222.569 296.375 222.232 295.953 221.805C295.537 221.377 295.218 220.885 294.995 220.328C294.778 219.771 294.67 219.183 294.67 218.562V218.228C294.67 217.53 294.767 216.886 294.96 216.294C295.153 215.696 295.44 215.175 295.821 214.729C296.202 214.284 296.68 213.938 297.254 213.692C297.828 213.44 298.496 213.314 299.258 213.314C299.932 213.314 300.535 213.423 301.068 213.64C301.602 213.856 302.053 214.167 302.422 214.571C302.797 214.976 303.081 215.465 303.274 216.039C303.474 216.613 303.573 217.258 303.573 217.973V219.177H295.804V217.322H300.682V217.094C300.688 216.777 300.632 216.508 300.515 216.285C300.403 216.062 300.239 215.893 300.022 215.775C299.806 215.658 299.542 215.6 299.231 215.6C298.909 215.6 298.643 215.67 298.432 215.811C298.227 215.951 298.065 216.145 297.948 216.391C297.837 216.631 297.758 216.909 297.711 217.226C297.664 217.542 297.641 217.876 297.641 218.228V218.562C297.641 218.913 297.688 219.232 297.781 219.52C297.881 219.807 298.021 220.053 298.203 220.258C298.391 220.457 298.613 220.612 298.871 220.724C299.135 220.835 299.434 220.891 299.768 220.891C300.172 220.891 300.57 220.814 300.963 220.662C301.355 220.51 301.692 220.258 301.974 219.906L303.318 221.506C303.125 221.781 302.85 222.048 302.492 222.306C302.141 222.563 301.719 222.774 301.227 222.938C300.734 223.097 300.184 223.176 299.574 223.176ZM309.717 220.609V216.689C309.717 216.42 309.679 216.188 309.603 215.995C309.526 215.802 309.406 215.652 309.242 215.547C309.078 215.436 308.858 215.38 308.583 215.38C308.36 215.38 308.17 215.418 308.012 215.494C307.854 215.57 307.733 215.685 307.651 215.837C307.569 215.989 307.528 216.183 307.528 216.417H304.566C304.566 215.978 304.663 215.57 304.856 215.195C305.056 214.814 305.337 214.483 305.7 214.202C306.069 213.921 306.509 213.704 307.019 213.552C307.534 213.394 308.108 213.314 308.741 213.314C309.497 213.314 310.171 213.44 310.763 213.692C311.36 213.944 311.832 214.322 312.178 214.826C312.523 215.324 312.696 215.951 312.696 216.707V220.601C312.696 221.222 312.731 221.693 312.802 222.016C312.872 222.332 312.972 222.61 313.101 222.851V223H310.13C309.989 222.707 309.884 222.35 309.813 221.928C309.749 221.5 309.717 221.061 309.717 220.609ZM310.077 217.19L310.095 218.772H308.785C308.51 218.772 308.275 218.811 308.082 218.887C307.895 218.963 307.742 219.068 307.625 219.203C307.514 219.332 307.432 219.479 307.379 219.643C307.332 219.807 307.309 219.979 307.309 220.161C307.309 220.337 307.35 220.495 307.432 220.636C307.52 220.771 307.637 220.876 307.783 220.952C307.93 221.028 308.094 221.066 308.275 221.066C308.604 221.066 308.882 221.005 309.11 220.882C309.345 220.753 309.523 220.598 309.646 220.416C309.77 220.234 309.831 220.064 309.831 219.906L310.481 221.119C310.364 221.354 310.229 221.591 310.077 221.831C309.931 222.071 309.746 222.294 309.523 222.499C309.307 222.698 309.04 222.862 308.724 222.991C308.407 223.114 308.023 223.176 307.572 223.176C306.986 223.176 306.447 223.056 305.955 222.815C305.469 222.575 305.079 222.241 304.786 221.813C304.493 221.38 304.347 220.882 304.347 220.319C304.347 219.827 304.435 219.388 304.61 219.001C304.792 218.614 305.064 218.286 305.428 218.017C305.791 217.747 306.254 217.542 306.816 217.401C307.379 217.261 308.041 217.19 308.803 217.19H310.077ZM318.356 220.891C318.632 220.891 318.866 220.841 319.06 220.741C319.259 220.636 319.408 220.489 319.508 220.302C319.613 220.108 319.663 219.877 319.657 219.607H322.443C322.449 220.322 322.273 220.949 321.916 221.488C321.564 222.021 321.084 222.438 320.475 222.736C319.871 223.029 319.188 223.176 318.427 223.176C317.683 223.176 317.032 223.056 316.476 222.815C315.919 222.569 315.453 222.229 315.078 221.796C314.709 221.356 314.431 220.844 314.243 220.258C314.062 219.672 313.971 219.036 313.971 218.351V218.148C313.971 217.463 314.062 216.827 314.243 216.241C314.431 215.649 314.709 215.137 315.078 214.703C315.453 214.264 315.916 213.924 316.467 213.684C317.023 213.438 317.671 213.314 318.409 213.314C319.2 213.314 319.897 213.464 320.501 213.763C321.11 214.062 321.588 214.495 321.934 215.063C322.279 215.632 322.449 216.32 322.443 217.129H319.657C319.663 216.842 319.619 216.584 319.525 216.355C319.432 216.127 319.285 215.945 319.086 215.811C318.893 215.67 318.644 215.6 318.339 215.6C318.034 215.6 317.788 215.667 317.601 215.802C317.413 215.937 317.27 216.124 317.17 216.364C317.076 216.599 317.012 216.868 316.977 217.173C316.947 217.478 316.933 217.803 316.933 218.148V218.351C316.933 218.702 316.947 219.033 316.977 219.344C317.012 219.648 317.079 219.918 317.179 220.152C317.278 220.381 317.422 220.562 317.609 220.697C317.797 220.826 318.046 220.891 318.356 220.891ZM328.719 213.49V215.547H322.988V213.49H328.719ZM324.192 211.126H327.154V219.897C327.154 220.149 327.184 220.346 327.242 220.486C327.301 220.621 327.4 220.718 327.541 220.776C327.688 220.829 327.881 220.855 328.121 220.855C328.291 220.855 328.432 220.853 328.543 220.847C328.654 220.835 328.76 220.82 328.859 220.803V222.921C328.607 223.003 328.344 223.064 328.068 223.105C327.793 223.152 327.5 223.176 327.189 223.176C326.557 223.176 326.015 223.076 325.563 222.877C325.118 222.678 324.778 222.364 324.544 221.937C324.31 221.509 324.192 220.952 324.192 220.267V211.126ZM330.09 221.611C330.09 221.189 330.242 220.838 330.547 220.557C330.852 220.27 331.244 220.126 331.725 220.126C332.211 220.126 332.604 220.27 332.902 220.557C333.207 220.838 333.359 221.189 333.359 221.611C333.359 222.033 333.207 222.388 332.902 222.675C332.604 222.956 332.211 223.097 331.725 223.097C331.244 223.097 330.852 222.956 330.547 222.675C330.242 222.388 330.09 222.033 330.09 221.611ZM335.565 213.49H338.536V223.308C338.536 224.069 338.39 224.711 338.097 225.232C337.804 225.76 337.385 226.158 336.84 226.428C336.295 226.703 335.645 226.841 334.889 226.841C334.637 226.841 334.405 226.829 334.194 226.806C333.978 226.788 333.74 226.75 333.482 226.691V224.45C333.635 224.474 333.775 224.491 333.904 224.503C334.033 224.521 334.174 224.529 334.326 224.529C334.596 224.529 334.821 224.485 335.003 224.397C335.185 224.31 335.322 224.175 335.416 223.993C335.516 223.812 335.565 223.583 335.565 223.308V213.49ZM335.346 211.038C335.346 210.616 335.498 210.271 335.803 210.001C336.107 209.731 336.503 209.597 336.989 209.597C337.476 209.597 337.871 209.731 338.176 210.001C338.48 210.271 338.633 210.616 338.633 211.038C338.633 211.46 338.48 211.806 338.176 212.075C337.871 212.345 337.476 212.479 336.989 212.479C336.503 212.479 336.107 212.345 335.803 212.075C335.498 211.806 335.346 211.46 335.346 211.038ZM345.198 220.328C345.198 220.164 345.143 220.023 345.031 219.906C344.926 219.783 344.738 219.672 344.469 219.572C344.199 219.467 343.821 219.361 343.335 219.256C342.872 219.156 342.436 219.024 342.025 218.86C341.621 218.696 341.267 218.497 340.962 218.263C340.657 218.028 340.417 217.75 340.241 217.428C340.071 217.105 339.986 216.736 339.986 216.32C339.986 215.916 340.071 215.535 340.241 215.178C340.417 214.814 340.672 214.495 341.006 214.22C341.346 213.938 341.759 213.719 342.245 213.561C342.731 213.396 343.285 213.314 343.906 213.314C344.762 213.314 345.5 213.446 346.121 213.71C346.742 213.968 347.22 214.331 347.554 214.8C347.894 215.263 348.063 215.799 348.063 216.408H345.102C345.102 216.168 345.061 215.963 344.979 215.793C344.902 215.623 344.776 215.494 344.601 215.406C344.425 215.312 344.19 215.266 343.897 215.266C343.692 215.266 343.505 215.304 343.335 215.38C343.171 215.456 343.039 215.562 342.939 215.696C342.84 215.831 342.79 215.989 342.79 216.171C342.79 216.3 342.819 216.417 342.878 216.522C342.942 216.622 343.039 216.716 343.168 216.804C343.297 216.886 343.461 216.962 343.66 217.032C343.859 217.097 344.1 217.155 344.381 217.208C345.02 217.325 345.617 217.492 346.174 217.709C346.73 217.926 347.182 218.233 347.527 218.632C347.879 219.03 348.055 219.566 348.055 220.24C348.055 220.662 347.958 221.052 347.765 221.409C347.571 221.761 347.293 222.071 346.93 222.341C346.566 222.604 346.13 222.81 345.62 222.956C345.11 223.103 344.536 223.176 343.897 223.176C342.989 223.176 342.222 223.015 341.595 222.692C340.968 222.364 340.493 221.954 340.171 221.462C339.854 220.964 339.696 220.46 339.696 219.95H342.456C342.468 220.243 342.538 220.483 342.667 220.671C342.802 220.858 342.98 220.996 343.203 221.084C343.426 221.172 343.684 221.216 343.977 221.216C344.246 221.216 344.469 221.178 344.645 221.102C344.826 221.025 344.964 220.923 345.058 220.794C345.151 220.659 345.198 220.504 345.198 220.328Z" fill="white"/>
<rect x="391" y="196" width="96" height="41" rx="3" fill="#424242"/>
<rect x="391" y="196" width="96" height="41" rx="3" stroke="#424242" stroke-width="4"/>
<path d="M414.417 210.203H419.453C420.438 210.203 421.293 210.35 422.02 210.643C422.746 210.936 423.306 211.369 423.698 211.943C424.097 212.518 424.296 213.227 424.296 214.07C424.296 214.803 424.182 215.415 423.953 215.907C423.725 216.399 423.405 216.807 422.995 217.129C422.591 217.445 422.119 217.706 421.58 217.911L420.569 218.482H416.342L416.324 216.101H419.453C419.846 216.101 420.171 216.03 420.429 215.89C420.687 215.749 420.88 215.55 421.009 215.292C421.144 215.028 421.211 214.715 421.211 214.352C421.211 213.982 421.144 213.666 421.009 213.402C420.874 213.139 420.675 212.937 420.411 212.796C420.153 212.655 419.834 212.585 419.453 212.585H417.502V223H414.417V210.203ZM421.422 223L418.592 217.34L421.861 217.322L424.727 222.868V223H421.422ZM430.624 223.176C429.851 223.176 429.159 223.056 428.55 222.815C427.94 222.569 427.425 222.232 427.003 221.805C426.587 221.377 426.268 220.885 426.045 220.328C425.828 219.771 425.72 219.183 425.72 218.562V218.228C425.72 217.53 425.816 216.886 426.01 216.294C426.203 215.696 426.49 215.175 426.871 214.729C427.252 214.284 427.729 213.938 428.304 213.692C428.878 213.44 429.546 213.314 430.308 213.314C430.981 213.314 431.585 213.423 432.118 213.64C432.651 213.856 433.103 214.167 433.472 214.571C433.847 214.976 434.131 215.465 434.324 216.039C434.523 216.613 434.623 217.258 434.623 217.973V219.177H426.854V217.322H431.731V217.094C431.737 216.777 431.682 216.508 431.564 216.285C431.453 216.062 431.289 215.893 431.072 215.775C430.855 215.658 430.592 215.6 430.281 215.6C429.959 215.6 429.692 215.67 429.481 215.811C429.276 215.951 429.115 216.145 428.998 216.391C428.887 216.631 428.808 216.909 428.761 217.226C428.714 217.542 428.69 217.876 428.69 218.228V218.562C428.69 218.913 428.737 219.232 428.831 219.52C428.931 219.807 429.071 220.053 429.253 220.258C429.44 220.457 429.663 220.612 429.921 220.724C430.185 220.835 430.483 220.891 430.817 220.891C431.222 220.891 431.62 220.814 432.013 220.662C432.405 220.51 432.742 220.258 433.023 219.906L434.368 221.506C434.175 221.781 433.899 222.048 433.542 222.306C433.19 222.563 432.769 222.774 432.276 222.938C431.784 223.097 431.233 223.176 430.624 223.176ZM441.294 220.82V209.5H444.273V223H441.602L441.294 220.82ZM435.458 218.359V218.175C435.458 217.454 435.537 216.798 435.695 216.206C435.854 215.608 436.088 215.096 436.398 214.668C436.709 214.234 437.096 213.9 437.559 213.666C438.021 213.432 438.555 213.314 439.158 213.314C439.697 213.314 440.169 213.44 440.573 213.692C440.978 213.938 441.323 214.284 441.61 214.729C441.897 215.175 442.132 215.696 442.313 216.294C442.495 216.886 442.633 217.524 442.727 218.21V218.43C442.633 219.074 442.495 219.684 442.313 220.258C442.132 220.826 441.897 221.33 441.61 221.77C441.323 222.209 440.975 222.555 440.564 222.807C440.16 223.053 439.686 223.176 439.141 223.176C438.537 223.176 438.004 223.056 437.541 222.815C437.084 222.575 436.7 222.238 436.39 221.805C436.085 221.371 435.854 220.861 435.695 220.275C435.537 219.689 435.458 219.051 435.458 218.359ZM438.42 218.175V218.359C438.42 218.717 438.443 219.048 438.49 219.353C438.537 219.657 438.616 219.927 438.728 220.161C438.845 220.39 438.997 220.568 439.185 220.697C439.378 220.826 439.615 220.891 439.896 220.891C440.277 220.891 440.591 220.8 440.837 220.618C441.089 220.437 441.273 220.179 441.391 219.845C441.514 219.511 441.566 219.118 441.549 218.667V217.973C441.561 217.586 441.534 217.246 441.47 216.953C441.405 216.654 441.303 216.405 441.162 216.206C441.027 216.007 440.854 215.857 440.644 215.758C440.438 215.652 440.195 215.6 439.914 215.6C439.639 215.6 439.404 215.664 439.211 215.793C439.023 215.922 438.871 216.104 438.754 216.338C438.637 216.566 438.552 216.839 438.499 217.155C438.446 217.466 438.42 217.806 438.42 218.175ZM451.507 220.688V213.49H454.478V223H451.7L451.507 220.688ZM451.788 218.755L452.562 218.737C452.562 219.376 452.485 219.968 452.333 220.513C452.181 221.052 451.955 221.521 451.656 221.919C451.363 222.317 451 222.628 450.566 222.851C450.139 223.067 449.644 223.176 449.081 223.176C448.612 223.176 448.182 223.111 447.789 222.982C447.402 222.848 447.068 222.64 446.787 222.358C446.506 222.071 446.286 221.705 446.128 221.26C445.976 220.809 445.899 220.27 445.899 219.643V213.49H448.861V219.66C448.861 219.871 448.888 220.053 448.94 220.205C448.993 220.357 449.069 220.486 449.169 220.592C449.269 220.691 449.392 220.768 449.538 220.82C449.69 220.867 449.863 220.891 450.057 220.891C450.502 220.891 450.851 220.797 451.103 220.609C451.354 220.422 451.53 220.167 451.63 219.845C451.735 219.522 451.788 219.159 451.788 218.755ZM458.626 213.49L459.962 216.109L461.342 213.49H464.418L461.922 218.122L464.55 223H461.447L459.962 220.188L458.485 223H455.383L458.011 218.122L455.523 213.49H458.626Z" fill="white"/>
<rect x="507" y="196" width="131" height="41" rx="3" fill="#424242"/>
<rect x="507" y="196" width="131" height="41" rx="3" stroke="#424242" stroke-width="4"/>
<path d="M538.917 220.627V223H532.097V220.627H538.917ZM533.195 210.203V223H530.11V210.203H533.195ZM538.038 215.283V217.577H532.097V215.283H538.038ZM538.943 210.203V212.585H532.097V210.203H538.943ZM543.171 209.5V223H540.2V209.5H543.171ZM549.604 223.176C548.831 223.176 548.14 223.056 547.53 222.815C546.921 222.569 546.405 222.232 545.983 221.805C545.567 221.377 545.248 220.885 545.025 220.328C544.809 219.771 544.7 219.183 544.7 218.562V218.228C544.7 217.53 544.797 216.886 544.99 216.294C545.184 215.696 545.471 215.175 545.852 214.729C546.232 214.284 546.71 213.938 547.284 213.692C547.858 213.44 548.526 213.314 549.288 213.314C549.962 213.314 550.565 213.423 551.099 213.64C551.632 213.856 552.083 214.167 552.452 214.571C552.827 214.976 553.111 215.465 553.305 216.039C553.504 216.613 553.604 217.258 553.604 217.973V219.177H545.834V217.322H550.712V217.094C550.718 216.777 550.662 216.508 550.545 216.285C550.434 216.062 550.27 215.893 550.053 215.775C549.836 215.658 549.572 215.6 549.262 215.6C548.939 215.6 548.673 215.67 548.462 215.811C548.257 215.951 548.096 216.145 547.979 216.391C547.867 216.631 547.788 216.909 547.741 217.226C547.694 217.542 547.671 217.876 547.671 218.228V218.562C547.671 218.913 547.718 219.232 547.812 219.52C547.911 219.807 548.052 220.053 548.233 220.258C548.421 220.457 548.644 220.612 548.901 220.724C549.165 220.835 549.464 220.891 549.798 220.891C550.202 220.891 550.601 220.814 550.993 220.662C551.386 220.51 551.723 220.258 552.004 219.906L553.349 221.506C553.155 221.781 552.88 222.048 552.522 222.306C552.171 222.563 551.749 222.774 551.257 222.938C550.765 223.097 550.214 223.176 549.604 223.176ZM558.824 220.891C559.1 220.891 559.334 220.841 559.527 220.741C559.727 220.636 559.876 220.489 559.976 220.302C560.081 220.108 560.131 219.877 560.125 219.607H562.911C562.917 220.322 562.741 220.949 562.384 221.488C562.032 222.021 561.552 222.438 560.942 222.736C560.339 223.029 559.656 223.176 558.895 223.176C558.15 223.176 557.5 223.056 556.943 222.815C556.387 222.569 555.921 222.229 555.546 221.796C555.177 221.356 554.898 220.844 554.711 220.258C554.529 219.672 554.438 219.036 554.438 218.351V218.148C554.438 217.463 554.529 216.827 554.711 216.241C554.898 215.649 555.177 215.137 555.546 214.703C555.921 214.264 556.384 213.924 556.935 213.684C557.491 213.438 558.139 213.314 558.877 213.314C559.668 213.314 560.365 213.464 560.969 213.763C561.578 214.062 562.056 214.495 562.401 215.063C562.747 215.632 562.917 216.32 562.911 217.129H560.125C560.131 216.842 560.087 216.584 559.993 216.355C559.899 216.127 559.753 215.945 559.554 215.811C559.36 215.67 559.111 215.6 558.807 215.6C558.502 215.6 558.256 215.667 558.068 215.802C557.881 215.937 557.737 216.124 557.638 216.364C557.544 216.599 557.479 216.868 557.444 217.173C557.415 217.478 557.4 217.803 557.4 218.148V218.351C557.4 218.702 557.415 219.033 557.444 219.344C557.479 219.648 557.547 219.918 557.646 220.152C557.746 220.381 557.89 220.562 558.077 220.697C558.265 220.826 558.514 220.891 558.824 220.891ZM569.187 213.49V215.547H563.456V213.49H569.187ZM564.66 211.126H567.622V219.897C567.622 220.149 567.651 220.346 567.71 220.486C567.769 220.621 567.868 220.718 568.009 220.776C568.155 220.829 568.349 220.855 568.589 220.855C568.759 220.855 568.899 220.853 569.011 220.847C569.122 220.835 569.228 220.82 569.327 220.803V222.921C569.075 223.003 568.812 223.064 568.536 223.105C568.261 223.152 567.968 223.176 567.657 223.176C567.024 223.176 566.482 223.076 566.031 222.877C565.586 222.678 565.246 222.364 565.012 221.937C564.777 221.509 564.66 220.952 564.66 220.267V211.126ZM573.353 215.846V223H570.391V213.49H573.159L573.353 215.846ZM576.165 213.42L576.112 216.171C575.995 216.159 575.837 216.145 575.638 216.127C575.438 216.109 575.271 216.101 575.137 216.101C574.791 216.101 574.492 216.142 574.24 216.224C573.994 216.3 573.789 216.417 573.625 216.575C573.467 216.728 573.35 216.921 573.273 217.155C573.203 217.39 573.171 217.662 573.177 217.973L572.641 217.621C572.641 216.982 572.702 216.402 572.825 215.881C572.954 215.354 573.136 214.899 573.37 214.519C573.604 214.132 573.889 213.836 574.223 213.631C574.557 213.42 574.932 213.314 575.348 213.314C575.494 213.314 575.638 213.323 575.778 213.341C575.925 213.358 576.054 213.385 576.165 213.42ZM576.499 218.342V218.157C576.499 217.46 576.599 216.818 576.798 216.232C576.997 215.641 577.29 215.128 577.677 214.694C578.063 214.261 578.541 213.924 579.109 213.684C579.678 213.438 580.334 213.314 581.078 213.314C581.828 213.314 582.487 213.438 583.056 213.684C583.63 213.924 584.11 214.261 584.497 214.694C584.884 215.128 585.177 215.641 585.376 216.232C585.575 216.818 585.675 217.46 585.675 218.157V218.342C585.675 219.033 585.575 219.675 585.376 220.267C585.177 220.853 584.884 221.365 584.497 221.805C584.11 222.238 583.633 222.575 583.064 222.815C582.496 223.056 581.84 223.176 581.096 223.176C580.352 223.176 579.692 223.056 579.118 222.815C578.544 222.575 578.063 222.238 577.677 221.805C577.29 221.365 576.997 220.853 576.798 220.267C576.599 219.675 576.499 219.033 576.499 218.342ZM579.461 218.157V218.342C579.461 218.699 579.487 219.033 579.54 219.344C579.593 219.654 579.681 219.927 579.804 220.161C579.927 220.39 580.094 220.568 580.305 220.697C580.516 220.826 580.779 220.891 581.096 220.891C581.406 220.891 581.664 220.826 581.869 220.697C582.08 220.568 582.247 220.39 582.37 220.161C582.493 219.927 582.581 219.654 582.634 219.344C582.687 219.033 582.713 218.699 582.713 218.342V218.157C582.713 217.812 582.687 217.486 582.634 217.182C582.581 216.871 582.493 216.599 582.37 216.364C582.247 216.124 582.08 215.937 581.869 215.802C581.658 215.667 581.395 215.6 581.078 215.6C580.768 215.6 580.507 215.667 580.296 215.802C580.091 215.937 579.927 216.124 579.804 216.364C579.681 216.599 579.593 216.871 579.54 217.182C579.487 217.486 579.461 217.812 579.461 218.157ZM589.902 215.521V223H586.94V213.49H589.718L589.902 215.521ZM589.551 217.92L588.856 217.938C588.856 217.211 588.944 216.563 589.12 215.995C589.296 215.421 589.545 214.935 589.867 214.536C590.189 214.138 590.573 213.836 591.019 213.631C591.47 213.42 591.971 213.314 592.521 213.314C592.961 213.314 593.362 213.379 593.726 213.508C594.095 213.637 594.411 213.845 594.675 214.132C594.944 214.419 595.149 214.8 595.29 215.274C595.437 215.743 595.51 216.323 595.51 217.015V223H592.53V217.006C592.53 216.625 592.478 216.335 592.372 216.136C592.267 215.931 592.114 215.79 591.915 215.714C591.716 215.638 591.473 215.6 591.186 215.6C590.881 215.6 590.623 215.658 590.412 215.775C590.201 215.893 590.031 216.057 589.902 216.268C589.779 216.473 589.688 216.716 589.63 216.997C589.577 217.278 589.551 217.586 589.551 217.92ZM597.347 221.611C597.347 221.189 597.499 220.838 597.804 220.557C598.108 220.27 598.501 220.126 598.981 220.126C599.468 220.126 599.86 220.27 600.159 220.557C600.464 220.838 600.616 221.189 600.616 221.611C600.616 222.033 600.464 222.388 600.159 222.675C599.86 222.956 599.468 223.097 598.981 223.097C598.501 223.097 598.108 222.956 597.804 222.675C597.499 222.388 597.347 222.033 597.347 221.611ZM602.822 213.49H605.793V223.308C605.793 224.069 605.646 224.711 605.354 225.232C605.061 225.76 604.642 226.158 604.097 226.428C603.552 226.703 602.901 226.841 602.146 226.841C601.894 226.841 601.662 226.829 601.451 226.806C601.234 226.788 600.997 226.75 600.739 226.691V224.45C600.892 224.474 601.032 224.491 601.161 224.503C601.29 224.521 601.431 224.529 601.583 224.529C601.853 224.529 602.078 224.485 602.26 224.397C602.441 224.31 602.579 224.175 602.673 223.993C602.772 223.812 602.822 223.583 602.822 223.308V213.49ZM602.603 211.038C602.603 210.616 602.755 210.271 603.06 210.001C603.364 209.731 603.76 209.597 604.246 209.597C604.732 209.597 605.128 209.731 605.433 210.001C605.737 210.271 605.89 210.616 605.89 211.038C605.89 211.46 605.737 211.806 605.433 212.075C605.128 212.345 604.732 212.479 604.246 212.479C603.76 212.479 603.364 212.345 603.06 212.075C602.755 211.806 602.603 211.46 602.603 211.038ZM612.455 220.328C612.455 220.164 612.399 220.023 612.288 219.906C612.183 219.783 611.995 219.672 611.726 219.572C611.456 219.467 611.078 219.361 610.592 219.256C610.129 219.156 609.692 219.024 609.282 218.86C608.878 218.696 608.523 218.497 608.219 218.263C607.914 218.028 607.674 217.75 607.498 217.428C607.328 217.105 607.243 216.736 607.243 216.32C607.243 215.916 607.328 215.535 607.498 215.178C607.674 214.814 607.929 214.495 608.263 214.22C608.603 213.938 609.016 213.719 609.502 213.561C609.988 213.396 610.542 213.314 611.163 213.314C612.019 213.314 612.757 213.446 613.378 213.71C613.999 213.968 614.477 214.331 614.811 214.8C615.15 215.263 615.32 215.799 615.32 216.408H612.358C612.358 216.168 612.317 215.963 612.235 215.793C612.159 215.623 612.033 215.494 611.857 215.406C611.682 215.312 611.447 215.266 611.154 215.266C610.949 215.266 610.762 215.304 610.592 215.38C610.428 215.456 610.296 215.562 610.196 215.696C610.097 215.831 610.047 215.989 610.047 216.171C610.047 216.3 610.076 216.417 610.135 216.522C610.199 216.622 610.296 216.716 610.425 216.804C610.554 216.886 610.718 216.962 610.917 217.032C611.116 217.097 611.356 217.155 611.638 217.208C612.276 217.325 612.874 217.492 613.431 217.709C613.987 217.926 614.438 218.233 614.784 218.632C615.136 219.03 615.312 219.566 615.312 220.24C615.312 220.662 615.215 221.052 615.021 221.409C614.828 221.761 614.55 222.071 614.187 222.341C613.823 222.604 613.387 222.81 612.877 222.956C612.367 223.103 611.793 223.176 611.154 223.176C610.246 223.176 609.479 223.015 608.852 222.692C608.225 222.364 607.75 221.954 607.428 221.462C607.111 220.964 606.953 220.46 606.953 219.95H609.713C609.725 220.243 609.795 220.483 609.924 220.671C610.059 220.858 610.237 220.996 610.46 221.084C610.683 221.172 610.94 221.216 611.233 221.216C611.503 221.216 611.726 221.178 611.901 221.102C612.083 221.025 612.221 220.923 612.314 220.794C612.408 220.659 612.455 220.504 612.455 220.328Z" fill="white"/>
<rect x="658" y="196" width="149" height="41" rx="3" fill="#424242"/>
<rect x="658" y="196" width="149" height="41" rx="3" stroke="#424242" stroke-width="4"/>
<path d="M688.669 210.203V223H685.584V210.203H688.669ZM692.519 210.203V212.585H681.822V210.203H692.519ZM697.133 220.609V216.689C697.133 216.42 697.095 216.188 697.019 215.995C696.942 215.802 696.822 215.652 696.658 215.547C696.494 215.436 696.274 215.38 695.999 215.38C695.776 215.38 695.586 215.418 695.428 215.494C695.27 215.57 695.149 215.685 695.067 215.837C694.985 215.989 694.944 216.183 694.944 216.417H691.982C691.982 215.978 692.079 215.57 692.272 215.195C692.472 214.814 692.753 214.483 693.116 214.202C693.485 213.921 693.925 213.704 694.435 213.552C694.95 213.394 695.524 213.314 696.157 213.314C696.913 213.314 697.587 213.44 698.179 213.692C698.776 213.944 699.248 214.322 699.594 214.826C699.939 215.324 700.112 215.951 700.112 216.707V220.601C700.112 221.222 700.147 221.693 700.218 222.016C700.288 222.332 700.388 222.61 700.517 222.851V223H697.546C697.405 222.707 697.3 222.35 697.229 221.928C697.165 221.5 697.133 221.061 697.133 220.609ZM697.493 217.19L697.511 218.772H696.201C695.926 218.772 695.691 218.811 695.498 218.887C695.311 218.963 695.158 219.068 695.041 219.203C694.93 219.332 694.848 219.479 694.795 219.643C694.748 219.807 694.725 219.979 694.725 220.161C694.725 220.337 694.766 220.495 694.848 220.636C694.936 220.771 695.053 220.876 695.199 220.952C695.346 221.028 695.51 221.066 695.691 221.066C696.02 221.066 696.298 221.005 696.526 220.882C696.761 220.753 696.939 220.598 697.062 220.416C697.186 220.234 697.247 220.064 697.247 219.906L697.897 221.119C697.78 221.354 697.646 221.591 697.493 221.831C697.347 222.071 697.162 222.294 696.939 222.499C696.723 222.698 696.456 222.862 696.14 222.991C695.823 223.114 695.439 223.176 694.988 223.176C694.402 223.176 693.863 223.056 693.371 222.815C692.885 222.575 692.495 222.241 692.202 221.813C691.909 221.38 691.763 220.882 691.763 220.319C691.763 219.827 691.851 219.388 692.026 219.001C692.208 218.614 692.48 218.286 692.844 218.017C693.207 217.747 693.67 217.542 694.232 217.401C694.795 217.261 695.457 217.19 696.219 217.19H697.493ZM704.885 213.49V223H701.914V213.49H704.885ZM701.738 211.038C701.738 210.616 701.891 210.271 702.195 210.001C702.5 209.731 702.896 209.597 703.382 209.597C703.868 209.597 704.264 209.731 704.568 210.001C704.873 210.271 705.025 210.616 705.025 211.038C705.025 211.46 704.873 211.806 704.568 212.075C704.264 212.345 703.868 212.479 703.382 212.479C702.896 212.479 702.5 212.345 702.195 212.075C701.891 211.806 701.738 211.46 701.738 211.038ZM709.842 209.5V223H706.871V209.5H709.842ZM714.562 220.17L716.319 213.49H718.174L717.515 216.839L715.774 223H714.289L714.562 220.17ZM713.867 213.49L714.957 220.117L715.08 223H713.278L711.028 213.49H713.867ZM719.738 219.977L720.837 213.49H723.676L721.443 223H719.642L719.738 219.977ZM718.385 213.49L720.16 220.152L720.433 223H718.93L717.225 216.856L716.592 213.49H718.385ZM727.877 213.49V223H724.906V213.49H727.877ZM724.73 211.038C724.73 210.616 724.883 210.271 725.188 210.001C725.492 209.731 725.888 209.597 726.374 209.597C726.86 209.597 727.256 209.731 727.561 210.001C727.865 210.271 728.018 210.616 728.018 211.038C728.018 211.46 727.865 211.806 727.561 212.075C727.256 212.345 726.86 212.479 726.374 212.479C725.888 212.479 725.492 212.345 725.188 212.075C724.883 211.806 724.73 211.46 724.73 211.038ZM732.614 215.521V223H729.652V213.49H732.43L732.614 215.521ZM732.263 217.92L731.568 217.938C731.568 217.211 731.656 216.563 731.832 215.995C732.008 215.421 732.257 214.935 732.579 214.536C732.901 214.138 733.285 213.836 733.73 213.631C734.182 213.42 734.683 213.314 735.233 213.314C735.673 213.314 736.074 213.379 736.438 213.508C736.807 213.637 737.123 213.845 737.387 214.132C737.656 214.419 737.861 214.8 738.002 215.274C738.148 215.743 738.222 216.323 738.222 217.015V223H735.242V217.006C735.242 216.625 735.189 216.335 735.084 216.136C734.979 215.931 734.826 215.79 734.627 215.714C734.428 215.638 734.185 215.6 733.897 215.6C733.593 215.6 733.335 215.658 733.124 215.775C732.913 215.893 732.743 216.057 732.614 216.268C732.491 216.473 732.4 216.716 732.342 216.997C732.289 217.278 732.263 217.586 732.263 217.92ZM745.332 220.82V209.5H748.312V223H745.64L745.332 220.82ZM739.496 218.359V218.175C739.496 217.454 739.575 216.798 739.733 216.206C739.892 215.608 740.126 215.096 740.437 214.668C740.747 214.234 741.134 213.9 741.597 213.666C742.06 213.432 742.593 213.314 743.196 213.314C743.735 213.314 744.207 213.44 744.611 213.692C745.016 213.938 745.361 214.284 745.648 214.729C745.936 215.175 746.17 215.696 746.352 216.294C746.533 216.886 746.671 217.524 746.765 218.21V218.43C746.671 219.074 746.533 219.684 746.352 220.258C746.17 220.826 745.936 221.33 745.648 221.77C745.361 222.209 745.013 222.555 744.603 222.807C744.198 223.053 743.724 223.176 743.179 223.176C742.575 223.176 742.042 223.056 741.579 222.815C741.122 222.575 740.738 222.238 740.428 221.805C740.123 221.371 739.892 220.861 739.733 220.275C739.575 219.689 739.496 219.051 739.496 218.359ZM742.458 218.175V218.359C742.458 218.717 742.481 219.048 742.528 219.353C742.575 219.657 742.654 219.927 742.766 220.161C742.883 220.39 743.035 220.568 743.223 220.697C743.416 220.826 743.653 220.891 743.935 220.891C744.315 220.891 744.629 220.8 744.875 220.618C745.127 220.437 745.312 220.179 745.429 219.845C745.552 219.511 745.604 219.118 745.587 218.667V217.973C745.599 217.586 745.572 217.246 745.508 216.953C745.443 216.654 745.341 216.405 745.2 216.206C745.065 216.007 744.893 215.857 744.682 215.758C744.477 215.652 744.233 215.6 743.952 215.6C743.677 215.6 743.442 215.664 743.249 215.793C743.062 215.922 742.909 216.104 742.792 216.338C742.675 216.566 742.59 216.839 742.537 217.155C742.484 217.466 742.458 217.806 742.458 218.175ZM757.408 218.667H760.484C760.443 219.558 760.203 220.343 759.764 221.022C759.324 221.702 758.715 222.232 757.936 222.613C757.162 222.988 756.248 223.176 755.193 223.176C754.338 223.176 753.573 223.032 752.899 222.745C752.231 222.458 751.663 222.045 751.194 221.506C750.731 220.967 750.377 220.313 750.131 219.546C749.891 218.778 749.771 217.914 749.771 216.953V216.259C749.771 215.298 749.896 214.434 750.148 213.666C750.406 212.893 750.77 212.236 751.238 211.697C751.713 211.152 752.281 210.736 752.943 210.449C753.605 210.162 754.341 210.019 755.149 210.019C756.263 210.019 757.203 210.218 757.971 210.616C758.738 211.015 759.333 211.562 759.755 212.26C760.177 212.951 760.426 213.739 760.502 214.624H757.426C757.414 214.144 757.332 213.742 757.18 213.42C757.027 213.092 756.787 212.846 756.459 212.682C756.131 212.518 755.694 212.436 755.149 212.436C754.769 212.436 754.438 212.506 754.156 212.646C753.875 212.787 753.641 213.01 753.453 213.314C753.266 213.619 753.125 214.015 753.031 214.501C752.943 214.981 752.899 215.562 752.899 216.241V216.953C752.899 217.633 752.94 218.213 753.022 218.693C753.104 219.174 753.236 219.566 753.418 219.871C753.6 220.176 753.834 220.401 754.121 220.548C754.414 220.688 754.771 220.759 755.193 220.759C755.662 220.759 756.058 220.686 756.38 220.539C756.702 220.387 756.951 220.158 757.127 219.854C757.303 219.543 757.396 219.147 757.408 218.667ZM768.535 219.599C768.535 219.399 768.506 219.221 768.447 219.062C768.389 218.898 768.28 218.746 768.122 218.605C767.964 218.465 767.735 218.324 767.437 218.184C767.144 218.037 766.757 217.885 766.276 217.727C765.714 217.539 765.172 217.328 764.65 217.094C764.129 216.854 763.663 216.575 763.253 216.259C762.843 215.937 762.518 215.562 762.277 215.134C762.037 214.7 761.917 214.196 761.917 213.622C761.917 213.071 762.04 212.576 762.286 212.137C762.532 211.691 762.875 211.313 763.314 211.003C763.76 210.687 764.281 210.446 764.879 210.282C765.477 210.112 766.13 210.027 766.839 210.027C767.776 210.027 768.603 210.191 769.317 210.52C770.038 210.842 770.601 211.302 771.005 211.899C771.415 212.491 771.62 213.191 771.62 214H768.553C768.553 213.678 768.485 213.394 768.351 213.147C768.222 212.901 768.025 212.708 767.762 212.567C767.498 212.427 767.167 212.356 766.769 212.356C766.382 212.356 766.057 212.415 765.793 212.532C765.529 212.649 765.33 212.808 765.195 213.007C765.061 213.2 764.993 213.414 764.993 213.648C764.993 213.842 765.046 214.018 765.151 214.176C765.263 214.328 765.418 214.472 765.617 214.606C765.822 214.741 766.068 214.87 766.355 214.993C766.648 215.116 766.977 215.236 767.34 215.354C768.02 215.57 768.623 215.813 769.15 216.083C769.684 216.347 770.132 216.648 770.495 216.988C770.864 217.322 771.143 217.703 771.33 218.131C771.523 218.559 771.62 219.042 771.62 219.581C771.62 220.155 771.509 220.665 771.286 221.11C771.063 221.556 770.744 221.934 770.328 222.244C769.912 222.549 769.414 222.78 768.834 222.938C768.254 223.097 767.606 223.176 766.892 223.176C766.235 223.176 765.588 223.094 764.949 222.93C764.316 222.76 763.742 222.502 763.227 222.156C762.711 221.805 762.298 221.356 761.987 220.812C761.683 220.261 761.53 219.607 761.53 218.852H764.624C764.624 219.227 764.674 219.543 764.773 219.801C764.873 220.059 765.02 220.267 765.213 220.425C765.406 220.577 765.644 220.688 765.925 220.759C766.206 220.823 766.528 220.855 766.892 220.855C767.284 220.855 767.601 220.8 767.841 220.688C768.081 220.571 768.257 220.419 768.368 220.231C768.479 220.038 768.535 219.827 768.535 219.599ZM779.803 219.599C779.803 219.399 779.773 219.221 779.715 219.062C779.656 218.898 779.548 218.746 779.39 218.605C779.231 218.465 779.003 218.324 778.704 218.184C778.411 218.037 778.024 217.885 777.544 217.727C776.981 217.539 776.439 217.328 775.918 217.094C775.396 216.854 774.931 216.575 774.521 216.259C774.11 215.937 773.785 215.562 773.545 215.134C773.305 214.7 773.185 214.196 773.185 213.622C773.185 213.071 773.308 212.576 773.554 212.137C773.8 211.691 774.143 211.313 774.582 211.003C775.027 210.687 775.549 210.446 776.146 210.282C776.744 210.112 777.397 210.027 778.106 210.027C779.044 210.027 779.87 210.191 780.585 210.52C781.306 210.842 781.868 211.302 782.272 211.899C782.683 212.491 782.888 213.191 782.888 214H779.82C779.82 213.678 779.753 213.394 779.618 213.147C779.489 212.901 779.293 212.708 779.029 212.567C778.766 212.427 778.435 212.356 778.036 212.356C777.649 212.356 777.324 212.415 777.061 212.532C776.797 212.649 776.598 212.808 776.463 213.007C776.328 213.2 776.261 213.414 776.261 213.648C776.261 213.842 776.313 214.018 776.419 214.176C776.53 214.328 776.686 214.472 776.885 214.606C777.09 214.741 777.336 214.87 777.623 214.993C777.916 215.116 778.244 215.236 778.607 215.354C779.287 215.57 779.891 215.813 780.418 216.083C780.951 216.347 781.399 216.648 781.763 216.988C782.132 217.322 782.41 217.703 782.598 218.131C782.791 218.559 782.888 219.042 782.888 219.581C782.888 220.155 782.776 220.665 782.554 221.11C782.331 221.556 782.012 221.934 781.596 222.244C781.18 222.549 780.682 222.78 780.102 222.938C779.521 223.097 778.874 223.176 778.159 223.176C777.503 223.176 776.855 223.094 776.217 222.93C775.584 222.76 775.01 222.502 774.494 222.156C773.979 221.805 773.565 221.356 773.255 220.812C772.95 220.261 772.798 219.607 772.798 218.852H775.892C775.892 219.227 775.941 219.543 776.041 219.801C776.141 220.059 776.287 220.267 776.48 220.425C776.674 220.577 776.911 220.688 777.192 220.759C777.474 220.823 777.796 220.855 778.159 220.855C778.552 220.855 778.868 220.8 779.108 220.688C779.349 220.571 779.524 220.419 779.636 220.231C779.747 220.038 779.803 219.827 779.803 219.599Z" fill="white"/>
<path d="M1066 0H1348C1356.28 0 1363 6.71573 1363 15V282C1363 290.284 1356.28 297 1348 297H1066V0Z" fill="white"/>
<path d="M1263.85 215.689C1265.59 214.935 1267.52 214.516 1269.54 214.516C1277.29 214.516 1283.57 220.668 1283.57 228.258C1283.57 235.847 1277.29 242 1269.54 242C1261.79 242 1255.5 235.847 1255.5 228.258C1255.5 224.172 1257.33 220.503 1260.22 217.986L1212.57 183.26L1214.99 180.075L1263.85 215.689ZM1283.3 55C1298.65 55.0002 1311.09 67.1847 1311.09 82.2148C1311.09 97.2449 1298.65 109.429 1283.3 109.43C1274.52 109.43 1266.69 105.443 1261.6 99.2188L1211.75 154.771C1214.06 157.429 1215.71 160.638 1216.49 164.17H1244.5V168.17H1216.97C1216.97 168.349 1216.98 168.529 1216.98 168.709C1216.98 180.614 1207.12 190.265 1194.96 190.265C1186.63 190.265 1179.38 185.731 1175.64 179.046L1141.88 202.231C1144.78 205.532 1146.53 209.823 1146.53 214.516C1146.53 224.933 1137.9 233.378 1127.26 233.378C1116.62 233.378 1108 224.933 1108 214.516C1108 204.099 1116.62 195.654 1127.26 195.654C1131.62 195.654 1135.63 197.069 1138.86 199.454L1174 175.317C1173.32 173.235 1172.95 171.014 1172.95 168.709C1172.95 156.804 1182.8 147.153 1194.96 147.152C1200.24 147.152 1205.08 148.97 1208.87 152L1259.08 96.043L1259.68 96.5586C1257.03 92.3937 1255.5 87.4793 1255.5 82.2148C1255.5 67.1846 1267.95 55 1283.3 55ZM1259.63 153.081C1267.99 153.081 1274.77 159.716 1274.77 167.9C1274.77 169.78 1274.41 171.578 1273.76 173.232L1273.88 173.067L1292.38 186.519C1294.54 184.497 1297.44 183.26 1300.64 183.26C1307.32 183.26 1312.74 188.688 1312.74 195.385C1312.74 202.081 1307.32 207.51 1300.64 207.51C1293.95 207.51 1288.53 202.081 1288.53 195.385C1288.53 193.328 1289.04 191.391 1289.94 189.693L1271.9 176.573C1269.15 180.297 1264.68 182.721 1259.63 182.721C1251.27 182.721 1244.5 176.085 1244.5 167.9C1244.5 159.716 1251.27 153.081 1259.63 153.081ZM1127.26 195.654H1123.26V136.375H1127.26V195.654ZM1310.27 154.158C1316.19 154.158 1321 158.863 1321 164.667C1321 170.471 1316.19 175.176 1310.27 175.176C1304.82 175.176 1300.33 171.204 1299.63 166.058L1275.87 167.092L1275.69 163.097L1299.87 162.043C1301.06 157.509 1305.27 154.158 1310.27 154.158ZM1299.54 125.597C1305.61 125.597 1310.54 130.423 1310.54 136.375C1310.54 142.327 1305.61 147.152 1299.54 147.152C1295.79 147.152 1292.48 145.32 1290.5 142.522L1273.12 159.009L1270.3 156.165L1287.92 139.459L1289.75 141.316C1288.97 139.836 1288.53 138.157 1288.53 136.375C1288.53 130.422 1293.46 125.597 1299.54 125.597ZM1127.26 98.6514C1137.9 98.6514 1146.53 107.096 1146.53 117.513C1146.53 122.626 1144.45 127.264 1141.07 130.661L1177.35 154.158L1175.11 157.473L1138.39 133.687L1139.44 132.126C1136.12 134.781 1131.88 136.375 1127.26 136.375C1116.62 136.375 1108 127.93 1108 117.513C1108 107.096 1116.62 98.6514 1127.26 98.6514Z" fill="url(#paint0_linear_3_61)"/>
<defs>
<linearGradient id="paint0_linear_3_61" x1="1108" y1="103.771" x2="1347.97" y2="107.425" gradientUnits="userSpaceOnUse">
<stop stop-color="#1E2A78"/>
<stop offset="1" stop-color="#1DE9B6"/>
</linearGradient>
</defs>
</svg>
